<?xml version="1.0" encoding="UTF-8"?>
<svg version="1.1" viewBox="0 0 2048 2048" width="512" height="512" xmlns="http://www.w3.org/2000/svg">
<path transform="translate(29,272)" d="m0 0h1226l19 1 9 4 7 7 4 8 1 6 1 123 411 2 13 4 12 8 10 8 13 12 8 8 7 8 10 11 9 11 11 14 14 18 12 17 13 18 15 22 8 12 13 20 16 25 12 19 16 26 17 28 17 29 14 24 13 23 14 25 14 26 14 27 13 26 11 25 2 5v473l-7 28-8 19-8 15-13 17-14 14-12 9-13 8-19 9-17 5-17 3-10 1h-33l1 7-1 25-3 24-6 25-8 23-12 25-11 18-12 16-12 14-15 15-14 11-12 9-22 13-19 9-19 7-28 7-19 3-9 1h-37l-23-3-25-6-25-9-25-12-19-12-14-11-10-9-8-7-7-7-7-8-12-15-14-22-8-16-7-16-7-21-5-21-3-24-1-16v-16l-720-1v30l-3 24-6 26-7 21-11 24-10 17-9 13-11 14-14 15-14 13-13 10-15 10-22 12-19 8-18 6-21 5-19 3-10 1h-36l-23-3-25-6-20-7-16-7-19-10-11-7-16-12-13-11-17-17-11-14-9-12-9-15-9-17-8-20-6-19-5-23-2-15-1-15v-21l-46-1-18-2-21-5-21-8-15-8-13-9-10-8-11-10-7-8-13-17-10-18-8-20-6-22-2-9v-1088l8-10 6-5 5-3z" fill="#010101"/>
<path transform="translate(56,328)" d="m0 0h1121l61 1v1137h-328l-148 1h-92l-4-8-10-24-11-21-10-15-12-16-11-12-14-14-14-11-13-9-20-12-19-9-25-9-22-5-19-3-12-1h-27l-26 3-22 5-20 6-19 8-16 8-19 12-17 13-10 9-5 4-7 8-11 12-14 19-11 19-11 23-7 19-1 1h-55l-15-2-16-5-16-8-12-8-13-12-8-10-8-13-6-14-4-14-2-17v-15l118-1 9-2 9-6 5-9 2-8v-266l-2-9-6-9-5-4-8-3-19-1h-103z" fill="#75BD4A"/>
<path transform="translate(1295,477)" d="m0 0 139 1h217l55 1 10 9 13 14 13 17 14 19 24 34 13 19 44 66 12 19 14 22 10 16 13 21 9 15 16 26 11 19 9 15 15 26 13 23 12 22 12 23 8 18 1 5v224l-90 1-9 2-8 6-6 9-2 7v177l4 13 5 5 5 4 5 2 6 1 90 1-1 14-5 17-8 16-9 12-8 8-13 9-17 8-12 3-7 1h-44l-3-5-8-21-8-16-10-18-10-14-9-11-11-12-13-13-14-11-11-8-20-12-23-11-27-9-23-5-14-2-13-1h-25l-21 2-24 5-21 6-20 8-20 10-21 14-10 8-11 9-18 18-9 11-11 15-12 20-10 21-8 21-1 1h-114l-1-296v-54z" fill="#75BD4A"/>
<path transform="translate(1596,588)" d="m0 0h36l19 1 12 16 24 34 22 32 13 19 16 23 8 12 13 19 10 15 23 35 12 19 13 21v3h2l4 7v3h2l2 4v3h2l14 27 4 11v52l-438 1v-356z" fill="#FDFDFD"/>
<path transform="translate(1631,1353)" d="m0 0h13l22 2 19 4 16 5 17 7 18 10 17 12 12 11 5 4 7 8 12 15 8 13 9 17 8 21 5 21 3 26v19l-3 23-6 22-8 21-11 20-10 14-11 13-15 15-13 10-18 11-16 8-16 6-24 6-13 2-22 1-24-2-23-5-21-7-16-8-14-8-19-14-12-11-7-8-11-14-13-21-9-20-6-19-4-21-2-22 1-21 3-20 6-22 8-20 10-18 10-14 9-11 18-18 16-12 15-9 21-10 19-6 20-4z" fill="#7F7F7E"/>
<path transform="translate(435,1353)" d="m0 0h11l22 2 23 5 20 7 16 8 14 8 16 12 12 11 11 11 12 16 8 13 8 16 7 18 5 19 3 19v38l-4 23-9 27-10 21-14 21-12 14-13 13-13 10-14 9-21 11-19 7-21 5-13 2h-38l-19-3-22-6-15-6-16-8-16-10-16-13-18-18-12-16-11-19-7-15-6-18-4-17-2-13-1-12v-17l2-19 5-23 6-18 11-23 10-15 10-13 13-14 8-7 13-10 16-10 16-8 19-7 21-5 13-2z" fill="#7F7F7E"/>
<path transform="translate(1378,532)" d="m0 0h259l15 1 10 5 11 9 25 25 7 8 11 13 9 11 12 15 15 20 13 17 12 17 14 20 11 16 12 18 15 23 12 19 14 23 10 17 12 21 8 15 11 24 6 18 1 15v71l-3 12-6 8-5 4-7 3-6 1h-484l-17-1-8-3-8-6-5-8-1-3-1-17v-358l1-52 4-8 6-7 9-5zm218 56-187 1v356l438-1v-52l-5-13-13-25h-2l-1-5-1-2h-2l-1-5-3-5h-2l-1-5-24-38-25-38-10-15-11-16-15-22-16-23-13-19-15-22-12-17-13-18-11-15-19-1z" fill="#010101"/>
<path transform="translate(430,1423)" d="m0 0h22l20 4 16 6 13 7 12 9 10 9 11 14 8 13 7 17 4 17 1 7v19l-3 18-6 18-7 14-10 14-11 12-15 11-19 10-20 6-15 2h-17l-18-3-18-6-18-10-14-11-8-8-10-13-6-10-6-15-5-19-1-6v-25l4-20 6-16 8-14 8-10 9-10 12-10 16-10 18-7 14-3z" fill="#010101"/>
<path transform="translate(1628,1423)" d="m0 0h22l21 4 15 6 13 7 11 8 12 11 11 14 8 14 5 12 5 19 1 8v22l-5 23-6 15-8 14-8 10-10 11-16 12-16 8-18 6-19 3h-16l-19-3-15-5-16-8-13-9-12-11-11-14-8-14-6-15-4-17-1-9v-16l2-16 6-20 9-17 8-11 12-13 10-8 13-8 15-7 15-4z" fill="#010101"/>
<path transform="translate(65,1087)" d="m0 0h42l36 1 1 27v177l-4 1h-84v-205z" fill="#E81662"/>
<path transform="translate(430,1479)" d="m0 0h20l14 4 13 8 9 9 8 14 4 12 1 13-3 15-8 16-3 1-1 4-7 7-8 5-11 5-13 3h-9l-14-3-14-7-10-9-7-9v-3h-2l-5-12-2-11v-9l3-14 7-14 9-10 7-6 14-7z" fill="#E8E9E8"/>
<path transform="translate(1629,1479)" d="m0 0h19l12 3 11 6 6 5v2l4 2 6 7 2 3v4h2l5 16v20l-4 13-1 2h-2l-2 6-1 2h-2l-1 4-9 9-6 4h-4v2l-15 5-5 1h-9l-15-3-12-6-9-7-8-9-8-16-3-14 1-14 5-15h2l1-5 5-7 7-6 5-5 14-7z" fill="#E8E9E8"/>
<path transform="translate(1933,1207)" d="m0 0h58l1 1 1 16v97l-2 2h-59v-115z" fill="#FBF39B"/>
<path transform="translate(1629,1479)" d="m0 0h19l12 3 11 6 6 5v2l4 2 6 7 2 3v4h2l5 16v20l-4 13-1 2h-2l-2 6-1 2h-2l-1 4-9 9-6 4h-4v2l-5 2h-9l3-2 2 1 1-3h2l2-4 5-4 1-3 5-4h2v-2h2l2-5 4-5 4-13-1-12-6-14-7-12-8-10-4-4v-2h-2v-2l-21-2-13 3-11 6-5 4-7 11-3 7-2 7-1 8v9l5 16 11 11 9 7v2l4 2 4 6 2 2-1 1-13-1-14-9-7-7-7-11-5-12-2-11 1-14 5-15h2l1-5 5-7 7-6 5-5 14-7z" fill="#F7F6F6"/>
<path transform="translate(430,1479)" d="m0 0h20l14 4 13 8 9 9 8 14 4 12 1 13-3 15-8 16-3 1-1 4-7 7-8 5-8 4h-9l-1-3 3-2 6 1 1-4 6-5h2l2-4 5-5 5-6h2l1-4 2-4 1-12-5-17-5-10v-3h-2l-5-9-3-3v-2l-4-1-4-5-2-1v-2h-24l-11 3-11 7-5 7-3 3-1 2h-2l-1 9-3 10v13l5 16 1 4 4 2 10 9 5 3 4 5 1 6h2l-1 2-10-1-12-7-10-10-4-6v-3h-2l-5-12-2-11v-9l3-14 7-14 9-10 7-6 14-7z" fill="#F7F6F6"/>
<path transform="translate(495,1520)" d="m0 0 2 2 2 12-1 12-4 13h-2l2-9z" fill="#C5B6BB"/>
<path transform="translate(1582,1522)" d="m0 0h1l1 18-1 11-2-4-1-14z" fill="#CAAFB8"/>
</svg>
